<\!-- Author: Dr Hamid MADANI drmdh@msn.com -->
<svg xmlns="http://www.w3.org/2000/svg" width="512" height="512" viewBox="0 0 512 512">
  <rect width="512" height="512" rx="64" fill="#0EA5E9"/>
  <path d="M256 96c-88.366 0-160 71.634-160 160s71.634 160 160 160 160-71.634 160-160S344.366 96 256 96zm0 280c-66.274 0-120-53.726-120-120s53.726-120 120-120 120 53.726 120 120-53.726 120-120 120z" fill="white"/>
  <path d="M256 176c-44.183 0-80 35.817-80 80s35.817 80 80 80 80-35.817 80-80-35.817-80-80-80zm0 120c-22.091 0-40-17.909-40-40s17.909-40 40-40 40 17.909 40 40-17.909 40-40 40z" fill="white" opacity="0.8"/>
  <circle cx="256" cy="256" r="20" fill="white"/>
  <text x="256" y="440" text-anchor="middle" font-family="Arial" font-weight="bold" font-size="48" fill="white">SecuAccess</text>
</svg>
